<svg width="20" height="20" viewBox="0 0 20 20" fill="none" xmlns="http://www.w3.org/2000/svg">
<path d="M6.00017 16V4H10.7814C11.7189 4 12.5843 4.28571 13.3776 4.85714C14.1708 5.42857 14.5675 6.22143 14.5675 7.23571C14.5675 7.96429 14.4016 8.52514 14.0699 8.91829C13.7381 9.31143 13.4281 9.59343 13.1396 9.76429C13.5002 9.92143 13.9006 10.2143 14.3407 10.6429C14.7809 11.0714 15.0007 11.7143 15.0002 12.5714C15.0002 13.8429 14.5314 14.7323 13.5939 15.2397C12.6564 15.7471 11.7766 16.0006 10.9545 16H6.00017ZM8.61796 13.6H10.868C11.5603 13.6 11.9823 13.4249 12.134 13.0746C12.2857 12.7243 12.3613 12.4709 12.3607 12.3143C12.3607 12.1571 12.2849 11.9037 12.1331 11.554C11.9814 11.2043 11.5381 11.0291 10.8031 11.0286H8.61796V13.6ZM8.61796 8.71429H10.63C11.1059 8.71429 11.4521 8.59286 11.6684 8.35C11.8848 8.10714 11.993 7.83571 11.993 7.53571C11.993 7.19286 11.8704 6.91429 11.6252 6.7C11.38 6.48571 11.0627 6.37857 10.6732 6.37857H8.61796V8.71429Z" fill="currentColor"/>
</svg>
