<svg width="16" height="10" viewBox="0 0 16 10" fill="none" xmlns="http://www.w3.org/2000/svg">
<g clip-path="url(#clip0_11_142)">
<path d="M15.6834 2.23485L8.59103 9.3483C8.5066 9.43273 8.41513 9.49268 8.31662 9.52814C8.21812 9.56361 8.11258 9.58105 8 9.58049C7.88742 9.58049 7.78188 9.56304 7.68338 9.52814C7.58487 9.49324 7.4934 9.4333 7.40897 9.3483L0.295514 2.23485C0.0985044 2.03784 -3.40465e-07 1.79157 -3.53382e-07 1.49606C-3.663e-07 1.20055 0.105541 0.947248 0.316622 0.736166C0.527704 0.525084 0.773966 0.419543 1.05541 0.419543C1.33685 0.419543 1.58311 0.525084 1.79419 0.736166L8 6.94197L14.2058 0.736165C14.4028 0.539156 14.6457 0.440651 14.9345 0.440651C15.2232 0.440651 15.4729 0.546191 15.6834 0.757273C15.8945 0.968355 16 1.21462 16 1.49606C16 1.7775 15.8945 2.02376 15.6834 2.23485Z" fill="currentColor"/>
</g>
<defs>
<clipPath id="clip0_11_142">
<rect width="16" height="10" fill="white"/>
</clipPath>
</defs>
</svg>
