<svg width="20" height="20" viewBox="0 0 20 20" fill="none" xmlns="http://www.w3.org/2000/svg">
<rect x="4" y="16.4" width="12" height="1.6" fill="currentColor"/>
<path d="M9.99985 15C11.3259 15 12.5977 14.5033 13.5354 13.6192C14.4731 12.7351 14.9998 11.536 14.9998 10.2857V4H12.9165V10.2857C12.9165 11.0151 12.6092 11.7145 12.0622 12.2303C11.5153 12.746 10.7734 13.0357 9.99985 13.0357C9.2263 13.0357 8.48443 12.746 7.93745 12.2303C7.39047 11.7145 7.08318 11.0151 7.08318 10.2857V4H4.99985V10.2857C4.99985 11.536 5.52663 12.7351 6.46431 13.6192C7.402 14.5033 8.67376 15 9.99985 15Z" fill="currentColor"/>
</svg>
